HIERARCHY
ROOT Hips
{
	OFFSET 0.00000 0.00000 0.00000
	CHANNELS 6 Xposition Yposition Zposition Zrotation Yrotation Xrotation 
	JOINT LHipJoint
	{
		OFFSET 0 0 0
		CHANNELS 3 Zrotation Yrotation Xrotation
		JOINT LeftUpLeg
		{
			OFFSET 1.65412 -1.54119 0.76744
			CHANNELS 3 Zrotation Yrotation Xrotation
			JOINT LeftLeg
			{
				OFFSET 2.19550 -6.03209 0.00000
				CHANNELS 3 Zrotation Yrotation Xrotation
				JOINT LeftFoot
				{
					OFFSET 2.38814 -6.56138 0.00000
					CHANNELS 3 Zrotation Yrotation Xrotation
					JOINT LeftToeBase
					{
						OFFSET 0.17337 -0.47632 1.75875
						CHANNELS 3 Zrotation Yrotation Xrotation
						End Site
						{
							OFFSET 0.00000 -0.00000 0.92050
						}
					}
				}
			}
		}
	}
	JOINT RHipJoint
	{
		OFFSET 0 0 0
		CHANNELS 3 Zrotation Yrotation Xrotation
		JOINT RightUpLeg
		{
			OFFSET -1.40291 -1.54119 0.76744
			CHANNELS 3 Zrotation Yrotation Xrotation
			JOINT RightLeg
			{
				OFFSET -2.22156 -6.10370 0.00000
				CHANNELS 3 Zrotation Yrotation Xrotation
				JOINT RightFoot
				{
					OFFSET -2.46840 -6.78188 0.00000
					CHANNELS 3 Zrotation Yrotation Xrotation
					JOINT RightToeBase
					{
						OFFSET -0.15659 -0.43024 1.84117
						CHANNELS 3 Zrotation Yrotation Xrotation
						End Site
						{
							OFFSET -0.00000 -0.00000 0.95587
						}
					}
				}
			}
		}
	}
	JOINT LowerBack
	{
		OFFSET 0 0 0
		CHANNELS 3 Zrotation Yrotation Xrotation
		JOINT Spine
		{
			OFFSET -0.01936 1.82120 -0.32061
			CHANNELS 3 Zrotation Yrotation Xrotation
			JOINT Spine1
			{
				OFFSET -0.00532 1.85767 -0.00071
				CHANNELS 3 Zrotation Yrotation Xrotation
				JOINT Neck
				{
					OFFSET 0 0 0
					CHANNELS 3 Zrotation Yrotation Xrotation
					JOINT Neck1
					{
						OFFSET -0.10687 1.58194 0.10810
						CHANNELS 3 Zrotation Yrotation Xrotation
						JOINT Head
						{
							OFFSET 0.15346 1.57382 -0.25612
							CHANNELS 3 Zrotation Yrotation Xrotation
							End Site
							{
								OFFSET 0.05334 1.61251 -0.10513
							}
						}
					}
				}
				JOINT LeftShoulder
				{
					OFFSET 0 0 0
					CHANNELS 3 Zrotation Yrotation Xrotation
					JOINT LeftArm
					{
						OFFSET 2.85758 0.89498 -0.01485
						CHANNELS 3 Zrotation Yrotation Xrotation
						JOINT LeftForeArm
						{
							OFFSET 4.79185 -0.00000 -0.00000
							CHANNELS 3 Zrotation Yrotation Xrotation
							JOINT LeftHand
							{
								OFFSET 2.65553 -0.00000 0.00000
								CHANNELS 3 Zrotation Yrotation Xrotation
								JOINT LeftFingerBase
								{
									OFFSET 0 0 0
									CHANNELS 3 Zrotation Yrotation Xrotation
									JOINT LeftHandIndex1
									{
										OFFSET 0.74390 -0.00000 0.00000
										CHANNELS 3 Zrotation Yrotation Xrotation
										End Site
										{
											OFFSET 0.59975 -0.00000 0.00000
										}
									}
								}
								JOINT LThumb
								{
									OFFSET 0 0 0
									CHANNELS 3 Zrotation Yrotation Xrotation
									End Site
									{
										OFFSET 0.60891 -0.00000 0.60891
									}
								}
							}
						}
					}
				}
				JOINT RightShoulder
				{
					OFFSET 0 0 0
					CHANNELS 3 Zrotation Yrotation Xrotation
					JOINT RightArm
					{
						OFFSET -2.93906 0.88031 0.02490
						CHANNELS 3 Zrotation Yrotation Xrotation
						JOINT RightForeArm
						{
							OFFSET -4.77254 -0.00000 -0.00000
							CHANNELS 3 Zrotation Yrotation Xrotation
							JOINT RightHand
							{
								OFFSET -2.75995 -0.00000 -0.00000
								CHANNELS 3 Zrotation Yrotation Xrotation
								JOINT RightFingerBase
								{
									OFFSET 0 0 0
									CHANNELS 3 Zrotation Yrotation Xrotation
									JOINT RightHandIndex1
									{
										OFFSET -0.70162 -0.00000 0.00000
										CHANNELS 3 Zrotation Yrotation Xrotation
										End Site
										{
											OFFSET -0.56566 -0.00000 0.00000
										}
									}
								}
								JOINT RThumb
								{
									OFFSET 0 0 0
									CHANNELS 3 Zrotation Yrotation Xrotation
									End Site
									{
										OFFSET -0.57430 -0.00000 0.57430
									}
								}
							}
						}
					}
				}
			}
		}
	}
}
MOTION
Frames: 15
Frame Time: .0083333
2.6026 14.7125 -0.3185 9.1972 -38.4002 10.9385 0.0000 0.0000 0.0000 -35.0701 1.9737 -44.0183 7.9862 16.1091 52.5131 2.4991 3.8873 -31.4410 0.1903 -2.8097 -7.7493 0.0000 0.0000 0.0000 -19.4199 37.7709 -50.6615 -7.4942 -15.7343 50.7196 -0.7031 7.7964 -15.1009 -1.6884 8.1843 -23.2753 5.9656 -5.4848 30.0223 7.3966 -4.5225 5.0984 6.3088 -2.3319 -9.8624 -17.8371 -12.4351 -1.5052 5.1749 -16.4159 12.9759 3.1910 -8.5536 6.1098 -0.0000 -0.0000 0.0000 43.8998 -81.4804 -78.3109 11.9415 -19.7168 -2.0825 -0.0000 0.0000 -19.8755 -1.0104 11.4209 -0.2001 -7.1250 0.0000 -0.0000 -24.3986 40.1084 3.1611 -0.0000 -0.0000 0.0000 3.4998 39.1323 -78.4691 -10.5199 17.5486 -1.6282 0.0000 -0.0000 -4.8374 -11.1169 14.5902 -2.8338 7.1250 -0.0000 -0.0000 11.1235 -15.3091 7.9453
2.5927 14.6951 -0.3472 9.1429 -38.2663 11.1312 0.0000 0.0000 0.0000 -34.8721 1.7307 -44.4368 8.1133 16.2020 52.9698 2.4967 3.9438 -31.4519 0.1913 -2.8167 -7.7687 0.0000 0.0000 0.0000 -19.5079 37.6941 -51.1362 -7.5843 -15.8048 51.0512 -0.7072 7.8000 -15.1433 -1.6611 8.1214 -23.0833 5.8660 -5.4517 30.1611 7.2753 -4.5185 5.2077 6.2312 -2.3285 -9.8019 -17.7471 -12.2429 -1.5814 5.1904 -16.1402 12.8165 3.2163 -8.4113 6.0330 0.0000 -0.0000 0.0000 39.6470 -82.4906 -73.9016 11.9678 -19.7564 -2.0914 -0.0000 0.0000 -20.0092 -0.9712 11.5315 -0.1942 -7.1250 0.0000 -0.0000 -24.4048 40.2127 3.0942 0.0000 -0.0000 0.0000 5.0287 38.9628 -76.7934 -10.5598 17.6104 -1.6403 0.0000 -0.0000 -5.3660 -11.0937 14.7186 -2.8520 7.1250 -0.0000 -0.0000 11.1367 -15.1828 7.9859
2.5819 14.6753 -0.3769 9.0281 -38.1695 11.3944 0.0000 0.0000 0.0000 -34.6200 1.4966 -44.9368 8.2469 16.2979 53.4472 2.4966 3.9608 -31.4584 0.1909 -2.8135 -7.7599 0.0000 0.0000 0.0000 -19.5385 37.6190 -51.6778 -7.6667 -15.8685 51.3530 -0.7614 7.4499 -15.6439 -2.0726 9.0157 -25.8445 5.7505 -5.4316 30.1976 7.1700 -4.5515 5.3643 6.1809 -2.3439 -9.6420 -17.6302 -12.0948 -1.7105 5.1498 -15.9085 12.6207 3.2125 -8.2899 5.9519 0.0000 -0.0000 0.0000 33.9468 -83.3428 -68.3505 11.9221 -19.6877 -2.0760 -0.0000 0.0000 -19.9879 -1.0143 11.4273 -0.2010 -7.1250 0.0000 -0.0000 -24.4040 40.1139 3.1584 0.0000 -0.0000 0.0000 6.3309 39.0656 -75.8559 -10.4858 17.4958 -1.6179 0.0000 -0.0000 -5.1417 -11.5742 14.8209 -2.9989 7.1250 -0.0000 -0.0000 10.8112 -15.0465 7.7758
2.5697 14.6617 -0.4064 8.8903 -38.0440 11.6779 0.0000 0.0000 0.0000 -34.3188 1.2363 -45.4122 8.3760 16.3890 53.9061 2.5169 3.8094 -31.5116 0.1804 -2.7360 -7.5446 0.0000 0.0000 0.0000 -19.5629 37.5609 -52.1946 -7.7456 -15.9290 51.6413 -0.7832 7.3125 -15.8459 -2.2247 9.3192 -26.7992 5.6942 -5.4057 30.2610 7.0664 -4.5508 5.4827 6.0945 -2.3440 -9.5405 -17.6551 -11.9902 -1.8459 5.2322 -15.7420 12.4465 3.2562 -8.1997 5.9082 -0.0000 0.0000 0.0000 26.0708 -84.2256 -60.8069 11.8814 -19.6266 -2.0623 -0.0000 0.0000 -19.9476 -1.0280 11.3174 -0.2018 -7.1250 0.0000 -0.0000 -24.3774 40.0126 3.2201 -0.0000 0.0000 0.0000 7.6128 39.1724 -75.2680 -10.3795 17.3310 -1.5861 0.0000 -0.0000 -4.3948 -11.7053 14.7384 -3.0173 7.1250 -0.0000 -0.0000 10.7240 -15.1196 7.6936
2.5557 14.6485 -0.4365 8.6826 -37.9275 12.0072 0.0000 0.0000 0.0000 -33.9822 1.0649 -45.9099 8.5048 16.4782 54.3611 2.5302 3.6744 -31.5308 0.1832 -2.7570 -7.6029 0.0000 0.0000 0.0000 -19.5517 37.5642 -52.7071 -7.8265 -15.9901 51.9353 -0.7892 7.2072 -15.8959 -2.2460 9.3607 -26.9303 5.7555 -5.3229 30.3576 6.9640 -4.4315 5.5426 5.9119 -2.2900 -9.5295 -17.8042 -11.9549 -1.8466 5.3888 -15.6940 12.2503 3.3344 -8.1700 5.8651 -0.0000 0.0000 0.0000 14.6999 -85.2280 -49.6951 11.8948 -19.6467 -2.0668 -0.0000 0.0000 -20.0121 -0.7677 11.3505 -0.1511 -7.1250 0.0000 -0.0000 -24.1759 40.0659 3.1553 -0.0000 0.0000 0.0000 8.9930 39.0581 -74.8450 -10.2779 17.1732 -1.5560 0.0000 -0.0000 -3.3387 -11.2786 14.7644 -2.9095 7.1250 -0.0000 -0.0000 11.0113 -15.1241 7.9066
2.5414 14.6328 -0.4661 8.6890 -37.8454 12.1680 0.0000 0.0000 0.0000 -33.8502 0.9244 -46.3403 8.6256 16.5606 54.7860 2.5271 3.7126 -31.5294 0.2051 -2.9159 -8.0448 0.0000 0.0000 0.0000 -19.6919 37.5039 -53.1940 -7.9109 -16.0533 52.2410 -0.7881 7.2485 -15.8880 -2.1991 9.2691 -26.6408 5.6376 -5.2024 30.4974 6.8077 -4.3164 5.5658 5.7734 -2.2321 -9.5723 -17.5879 -11.9073 -1.7098 5.2003 -15.6346 11.9977 3.2702 -8.1385 5.7225 0.0000 -0.0000 0.0000 -2.7034 -85.9833 -32.6032 11.8771 -19.6201 -2.0608 -0.0000 0.0000 -19.9521 -0.6820 11.3657 -0.1344 -7.1250 0.0000 -0.0000 -24.1108 40.0874 3.1318 0.0000 -0.0000 0.0000 10.7011 38.6734 -73.1555 -10.3087 17.2210 -1.5651 0.0000 -0.0000 -3.2040 -11.2295 14.9242 -2.9271 7.1250 -0.0000 -0.0000 11.0417 -14.9683 7.9668
2.5253 14.6188 -0.4948 8.6682 -37.7143 12.3085 0.0000 0.0000 0.0000 -33.6741 0.7901 -46.7240 8.7486 16.6432 55.2166 2.5251 3.6952 -31.5100 0.2189 -3.0118 -8.3117 0.0000 0.0000 0.0000 -19.7335 37.4189 -53.5906 -7.9948 -16.1154 52.5438 -0.7910 7.2593 -15.9172 -2.1703 9.2121 -26.4612 5.5888 -5.1198 30.7664 6.5801 -4.2166 5.5426 5.5397 -2.1810 -9.7250 -17.1393 -11.8540 -1.6792 4.9643 -15.5591 11.8536 3.1536 -8.0920 5.6075 -0.0000 0.0000 0.0000 -23.7342 -86.2192 -11.6613 11.8030 -19.5086 -2.0360 -0.0000 0.0000 -19.8635 -0.9728 11.3742 -0.1919 -7.1250 0.0000 -0.0000 -24.3518 40.0693 3.1795 -0.0000 0.0000 0.0000 12.4562 38.2324 -71.2729 -10.3033 17.2126 -1.5635 0.0000 -0.0000 -3.2044 -11.6211 14.9470 -3.0363 7.1250 -0.0000 -0.0000 10.7778 -14.9172 7.7812
2.5095 14.6046 -0.5265 8.4976 -37.5741 12.5583 0.0000 0.0000 0.0000 -33.3453 0.6339 -47.1717 8.8787 16.7290 55.6696 2.5098 3.7751 -31.4544 0.2517 -3.2284 -8.9154 0.0000 0.0000 0.0000 -19.6882 37.4082 -54.0333 -8.0787 -16.1768 52.8455 -0.7990 7.1691 -15.9882 -2.1882 9.2476 -26.5729 5.6869 -5.0397 31.0096 6.2842 -4.0904 5.5750 5.1389 -2.1228 -9.8140 -16.7234 -11.8006 -2.0743 4.9447 -15.4428 12.1178 3.0743 -8.0166 5.7077 -0.0000 0.0000 0.0000 -42.0749 -85.9012 7.1885 11.8265 -19.5439 -2.0439 -0.0000 0.0000 -20.0129 -1.1851 11.4496 -0.2353 -7.1250 0.0000 -0.0000 -24.5513 40.1189 3.1770 -0.0000 0.0000 0.0000 14.2318 37.8544 -69.8817 -10.2748 17.1682 -1.5551 0.0000 -0.0000 -2.8380 -11.9926 14.9441 -3.1354 7.1250 -0.0000 -0.0000 10.5276 -14.8927 7.5998
2.4913 14.5872 -0.5599 8.1770 -37.4255 12.9123 0.0000 0.0000 0.0000 -32.8902 0.5503 -47.6884 9.0174 16.8189 56.1503 2.5133 3.6335 -31.4132 0.2557 -3.2534 -8.9852 0.0000 0.0000 0.0000 -19.5432 37.4679 -54.5023 -8.1641 -16.2387 53.1517 -0.8029 7.0150 -16.0152 -2.2496 9.3677 -26.9525 5.6502 -5.0390 31.1723 6.1480 -4.1056 5.6540 5.0234 -2.1293 -9.7977 -16.6364 -11.5993 -2.6453 4.8579 -15.0765 12.5198 3.0312 -7.8388 5.8768 -0.0000 -0.0000 0.0000 -52.8890 -84.9560 18.0017 11.8464 -19.5739 -2.0505 -0.0000 0.0000 -19.9229 -1.0754 11.5298 -0.2150 -7.1250 0.0000 -0.0000 -24.4895 40.2019 3.1136 -0.0000 -0.0000 0.0000 15.8417 37.9241 -68.5053 -10.2367 17.1090 -1.5439 0.0000 -0.0000 -2.3101 -12.1912 14.9212 -3.1841 7.1250 -0.0000 -0.0000 10.3942 -14.9007 7.4983
2.4715 14.5712 -0.5939 7.9018 -37.2164 13.2323 0.0000 0.0000 0.0000 -32.4541 0.4391 -48.1704 9.1564 16.9073 56.6295 2.5293 3.2683 -31.3519 0.2284 -3.0761 -8.4907 0.0000 0.0000 0.0000 -19.3896 37.4381 -54.9347 -8.2552 -16.3038 53.4766 -0.7842 7.0589 -15.8352 -2.0989 9.0691 -26.0118 5.2934 -5.1629 31.4126 6.2152 -4.3455 5.6660 5.3880 -2.2312 -9.8539 -17.1285 -11.2160 -2.9333 4.8657 -14.4772 12.6257 3.1464 -7.5705 5.9333 -0.0000 0.0000 0.0000 -57.9928 -83.8283 21.4478 11.5158 -19.0746 -1.9411 -0.0000 0.0000 -18.6372 -1.0733 11.3648 -0.2115 -7.1250 0.0000 -0.0000 -24.4307 40.0517 3.2028 -0.0000 0.0000 0.0000 16.8523 38.9772 -68.8712 -9.9138 16.6046 -1.4502 0.0000 -0.0000 -0.0203 -12.2052 15.3589 -3.2789 7.1250 -0.0000 -0.0000 10.3808 -14.4612 7.5874
2.4530 14.5548 -0.6268 7.8291 -36.9473 13.4225 0.0000 0.0000 0.0000 -32.1761 0.2327 -48.5866 9.2900 16.9907 57.0876 2.5318 3.0874 -31.2907 0.2256 -3.0570 -8.4375 0.0000 0.0000 0.0000 -19.3854 37.3082 -55.3380 -8.3514 -16.3718 53.8189 -0.7656 7.1280 -15.6560 -1.9136 8.6838 -24.8111 4.9494 -5.2153 31.6415 6.1524 -4.5047 5.6706 5.5768 -2.2942 -9.9226 -17.2371 -10.9152 -2.9881 4.9186 -14.0546 12.4739 3.2252 -7.3650 5.8594 -0.0000 -0.0000 0.0000 -64.4289 -82.9972 25.6021 11.0288 -18.3324 -1.7850 -0.0000 0.0000 -16.4660 -1.2714 10.9960 -0.2425 -7.1250 0.0000 -0.0000 -24.4659 39.6983 3.4387 -0.0000 -0.0000 0.0000 18.0995 39.6410 -69.1492 -9.6385 16.1722 -1.3726 0.0000 0.0000 1.9294 -12.3894 15.8455 -3.4325 7.1250 -0.0000 -0.0000 10.2547 -13.9590 7.6033
2.4329 14.5368 -0.6582 7.7267 -36.7000 13.6352 0.0000 0.0000 0.0000 -31.8665 0.0274 -48.9950 9.4201 17.0706 57.5318 2.5364 3.0087 -31.2852 0.2378 -3.1383 -8.6641 0.0000 0.0000 0.0000 -19.3112 37.1847 -55.7411 -8.4481 -16.4391 54.1610 -0.7966 6.9457 -15.9494 -2.1016 9.0747 -26.0291 4.8591 -5.1918 31.7602 5.8914 -4.5239 5.7392 5.3544 -2.2996 -9.9046 -16.8307 -10.7702 -3.1090 4.9062 -13.8596 12.3641 3.1834 -7.2484 5.7911 0.0000 -0.0000 0.0000 -69.0884 -81.9993 30.1471 10.9661 -18.2363 -1.7653 -0.0000 0.0000 -16.0852 -1.0670 11.2460 -0.2081 -7.1250 0.0000 -0.0000 -24.3848 39.9441 3.2658 0.0000 -0.0000 0.0000 20.1204 39.1529 -66.3965 -9.7838 16.4006 -1.4133 0.0000 0.0000 0.6434 -12.5636 15.7893 -3.4702 7.1250 -0.0000 -0.0000 10.1384 -14.0012 7.5050
2.4120 14.5176 -0.6906 7.5905 -36.4591 13.8705 0.0000 0.0000 0.0000 -31.5394 -0.1660 -49.4053 9.5477 17.1476 57.9658 2.5344 2.9443 -31.2470 0.2596 -3.2780 -9.0538 0.0000 0.0000 0.0000 -19.2089 37.0547 -56.1585 -8.5452 -16.5060 54.5037 -0.8299 6.7816 -16.2639 -2.2845 9.4350 -27.1659 4.8744 -5.1450 31.8596 5.6416 -4.4806 5.8078 5.0643 -2.2789 -9.8858 -16.6350 -10.6756 -3.3091 5.0125 -13.7214 12.3837 3.1935 -7.1635 5.8079 0.0000 -0.0000 0.0000 -71.6094 -80.8024 34.1774 11.2047 -18.6014 -1.8407 -0.0000 0.0000 -17.5112 -0.0528 11.9407 -0.0109 -7.1250 0.0000 -0.0000 -23.7912 40.6699 2.7167 0.0000 -0.0000 0.0000 22.0595 38.4518 -63.6146 -9.9569 16.6721 -1.4626 0.0000 -0.0000 -0.7342 -12.6375 15.6947 -3.4709 7.1250 -0.0000 -0.0000 10.0893 -14.0902 7.4481
2.3933 14.5020 -0.7229 7.5163 -36.1606 14.0759 0.0000 0.0000 0.0000 -31.2725 -0.3950 -49.7967 9.6702 17.2202 58.3801 2.5205 2.8401 -31.1220 0.2571 -3.2622 -9.0095 0.0000 0.0000 0.0000 -19.1709 36.8674 -56.5548 -8.6448 -16.5736 54.8533 -0.8325 6.8396 -16.2920 -2.2212 9.3124 -26.7776 4.8661 -5.0071 31.9933 5.5361 -4.3084 5.8374 4.8990 -2.1977 -9.9205 -16.6962 -10.6621 -3.5101 5.1284 -13.6751 12.4025 3.2315 -7.1336 5.8547 -0.0000 0.0000 0.0000 -76.7042 -79.7879 39.3556 11.2061 -18.6035 -1.8411 -0.0000 0.0000 -18.1370 1.1052 12.3691 0.2368 -7.1250 0.0000 -0.0000 -22.9782 41.1707 2.3082 -0.0000 0.0000 0.0000 23.5434 37.7007 -62.2228 -10.0044 16.7465 -1.4762 0.0000 -0.0000 -0.8641 -12.4342 15.8116 -3.4381 7.1250 -0.0000 -0.0000 10.2250 -13.9894 7.5738
2.3737 14.4886 -0.7542 7.4154 -35.8482 14.2616 0.0000 0.0000 0.0000 -30.9646 -0.6210 -50.1362 9.7870 17.2883 58.7740 2.5171 2.6983 -31.0444 0.2426 -3.1695 -8.7511 0.0000 0.0000 0.0000 -19.0499 36.6682 -56.8910 -8.7456 -16.6412 55.2062 -0.8353 6.8508 -16.3196 -2.1731 9.2178 -26.4790 4.8725 -4.8151 32.1141 5.4516 -4.0666 5.9067 4.7187 -2.0860 -9.9076 -16.6684 -10.7134 -3.7223 5.1534 -13.7095 12.4031 3.2198 -7.1430 5.8937 0.0000 -0.0000 0.0000 -81.8617 -78.8822 43.6604 10.9872 -18.2686 -1.7719 -0.0000 0.0000 -17.5142 1.4389 12.1872 0.3038 -7.1250 0.0000 -0.0000 -22.6377 41.0344 2.3508 0.0000 -0.0000 0.0000 25.0878 36.5447 -59.9876 -10.2023 17.0554 -1.5337 0.0000 -0.0000 -1.7575 -12.2780 15.6672 -3.3635 7.1250 -0.0000 -0.0000 10.3299 -14.1466 7.6192
